<mxfile host="app.diagrams.net" modified="2023-03-17T15:58:28.623Z" agent="5.0 (Windows NT 10.0; Win64; x64) AppleWebKit/537.36 (KHTML, like Gecko) Chrome/109.0.0.0 Safari/537.36 OPR/95.0.0.0" etag="vgla33kKSO6QW2dp1JCD" version="21.0.6" type="github">
  <diagram name="Página-1" id="O8tzvQ_PU4wWjEaQ9aqo">
    <mxGraphModel dx="987" dy="534" grid="1" gridSize="10" guides="1" tooltips="1" connect="1" arrows="1" fold="1" page="1" pageScale="1" pageWidth="1169" pageHeight="827" math="0" shadow="0">
      <root>
        <mxCell id="0" />
        <mxCell id="1" parent="0" />
        <mxCell id="yyXE2H1xFapimnY8cJsD-45" value="" style="edgeStyle=orthogonalEdgeStyle;rounded=0;orthogonalLoop=1;jettySize=auto;html=1;" edge="1" parent="1" source="yyXE2H1xFapimnY8cJsD-1" target="yyXE2H1xFapimnY8cJsD-37">
          <mxGeometry relative="1" as="geometry" />
        </mxCell>
        <mxCell id="yyXE2H1xFapimnY8cJsD-46" style="edgeStyle=orthogonalEdgeStyle;rounded=0;orthogonalLoop=1;jettySize=auto;html=1;entryX=0.5;entryY=0;entryDx=0;entryDy=0;" edge="1" parent="1" source="yyXE2H1xFapimnY8cJsD-1" target="yyXE2H1xFapimnY8cJsD-35">
          <mxGeometry relative="1" as="geometry">
            <Array as="points">
              <mxPoint x="299" y="260" />
              <mxPoint x="190" y="260" />
            </Array>
          </mxGeometry>
        </mxCell>
        <mxCell id="yyXE2H1xFapimnY8cJsD-47" style="edgeStyle=orthogonalEdgeStyle;rounded=0;orthogonalLoop=1;jettySize=auto;html=1;entryX=0.5;entryY=0;entryDx=0;entryDy=0;" edge="1" parent="1" source="yyXE2H1xFapimnY8cJsD-1" target="yyXE2H1xFapimnY8cJsD-41">
          <mxGeometry relative="1" as="geometry">
            <Array as="points">
              <mxPoint x="299" y="260" />
              <mxPoint x="411" y="260" />
            </Array>
          </mxGeometry>
        </mxCell>
        <mxCell id="yyXE2H1xFapimnY8cJsD-1" value="CRIMINOSO" style="whiteSpace=wrap;html=1;align=center;" vertex="1" parent="1">
          <mxGeometry x="249" y="200" width="100" height="40" as="geometry" />
        </mxCell>
        <mxCell id="yyXE2H1xFapimnY8cJsD-54" style="edgeStyle=orthogonalEdgeStyle;rounded=0;orthogonalLoop=1;jettySize=auto;html=1;entryX=0.5;entryY=0;entryDx=0;entryDy=0;" edge="1" parent="1" source="yyXE2H1xFapimnY8cJsD-2" target="yyXE2H1xFapimnY8cJsD-50">
          <mxGeometry relative="1" as="geometry">
            <Array as="points">
              <mxPoint x="837" y="260" />
              <mxPoint x="729" y="260" />
            </Array>
          </mxGeometry>
        </mxCell>
        <mxCell id="yyXE2H1xFapimnY8cJsD-55" style="edgeStyle=orthogonalEdgeStyle;rounded=0;orthogonalLoop=1;jettySize=auto;html=1;entryX=0.5;entryY=0;entryDx=0;entryDy=0;" edge="1" parent="1" source="yyXE2H1xFapimnY8cJsD-2" target="yyXE2H1xFapimnY8cJsD-52">
          <mxGeometry relative="1" as="geometry">
            <Array as="points">
              <mxPoint x="837" y="260" />
              <mxPoint x="949" y="260" />
            </Array>
          </mxGeometry>
        </mxCell>
        <mxCell id="yyXE2H1xFapimnY8cJsD-56" style="edgeStyle=orthogonalEdgeStyle;rounded=0;orthogonalLoop=1;jettySize=auto;html=1;entryX=0.5;entryY=0;entryDx=0;entryDy=0;" edge="1" parent="1" source="yyXE2H1xFapimnY8cJsD-2" target="yyXE2H1xFapimnY8cJsD-51">
          <mxGeometry relative="1" as="geometry" />
        </mxCell>
        <mxCell id="yyXE2H1xFapimnY8cJsD-2" value="VÍTIMA" style="whiteSpace=wrap;html=1;align=center;" vertex="1" parent="1">
          <mxGeometry x="787.5" y="200" width="100" height="40" as="geometry" />
        </mxCell>
        <mxCell id="yyXE2H1xFapimnY8cJsD-77" style="edgeStyle=orthogonalEdgeStyle;rounded=0;orthogonalLoop=1;jettySize=auto;html=1;entryX=0.5;entryY=0;entryDx=0;entryDy=0;" edge="1" parent="1" source="yyXE2H1xFapimnY8cJsD-3" target="yyXE2H1xFapimnY8cJsD-73">
          <mxGeometry relative="1" as="geometry">
            <Array as="points">
              <mxPoint x="579" y="510" />
              <mxPoint x="445" y="510" />
            </Array>
          </mxGeometry>
        </mxCell>
        <mxCell id="yyXE2H1xFapimnY8cJsD-78" style="edgeStyle=orthogonalEdgeStyle;rounded=0;orthogonalLoop=1;jettySize=auto;html=1;entryX=0.5;entryY=0;entryDx=0;entryDy=0;" edge="1" parent="1" source="yyXE2H1xFapimnY8cJsD-3" target="yyXE2H1xFapimnY8cJsD-76">
          <mxGeometry relative="1" as="geometry">
            <Array as="points">
              <mxPoint x="579" y="510" />
              <mxPoint x="713" y="510" />
            </Array>
          </mxGeometry>
        </mxCell>
        <mxCell id="yyXE2H1xFapimnY8cJsD-81" style="edgeStyle=orthogonalEdgeStyle;rounded=0;orthogonalLoop=1;jettySize=auto;html=1;entryX=0.5;entryY=0;entryDx=0;entryDy=0;" edge="1" parent="1" source="yyXE2H1xFapimnY8cJsD-3" target="yyXE2H1xFapimnY8cJsD-75">
          <mxGeometry relative="1" as="geometry">
            <Array as="points">
              <mxPoint x="579" y="510" />
              <mxPoint x="624" y="510" />
            </Array>
          </mxGeometry>
        </mxCell>
        <mxCell id="yyXE2H1xFapimnY8cJsD-82" style="edgeStyle=orthogonalEdgeStyle;rounded=0;orthogonalLoop=1;jettySize=auto;html=1;entryX=0.5;entryY=0;entryDx=0;entryDy=0;" edge="1" parent="1" source="yyXE2H1xFapimnY8cJsD-3" target="yyXE2H1xFapimnY8cJsD-74">
          <mxGeometry relative="1" as="geometry">
            <Array as="points">
              <mxPoint x="579" y="510" />
              <mxPoint x="535" y="510" />
            </Array>
          </mxGeometry>
        </mxCell>
        <mxCell id="yyXE2H1xFapimnY8cJsD-3" value="DELEGACIA" style="whiteSpace=wrap;html=1;align=center;" vertex="1" parent="1">
          <mxGeometry x="529" y="440" width="100" height="40" as="geometry" />
        </mxCell>
        <mxCell id="yyXE2H1xFapimnY8cJsD-68" style="edgeStyle=orthogonalEdgeStyle;rounded=0;orthogonalLoop=1;jettySize=auto;html=1;entryX=0.5;entryY=1;entryDx=0;entryDy=0;" edge="1" parent="1" source="yyXE2H1xFapimnY8cJsD-6" target="yyXE2H1xFapimnY8cJsD-63">
          <mxGeometry relative="1" as="geometry" />
        </mxCell>
        <mxCell id="yyXE2H1xFapimnY8cJsD-69" style="edgeStyle=orthogonalEdgeStyle;rounded=0;orthogonalLoop=1;jettySize=auto;html=1;entryX=0.5;entryY=1;entryDx=0;entryDy=0;" edge="1" parent="1" source="yyXE2H1xFapimnY8cJsD-6" target="yyXE2H1xFapimnY8cJsD-65">
          <mxGeometry relative="1" as="geometry" />
        </mxCell>
        <mxCell id="yyXE2H1xFapimnY8cJsD-70" style="edgeStyle=orthogonalEdgeStyle;rounded=0;orthogonalLoop=1;jettySize=auto;html=1;entryX=0.5;entryY=1;entryDx=0;entryDy=0;" edge="1" parent="1" source="yyXE2H1xFapimnY8cJsD-6" target="yyXE2H1xFapimnY8cJsD-66">
          <mxGeometry relative="1" as="geometry">
            <Array as="points">
              <mxPoint x="579" y="150" />
              <mxPoint x="714" y="150" />
            </Array>
          </mxGeometry>
        </mxCell>
        <mxCell id="yyXE2H1xFapimnY8cJsD-71" style="edgeStyle=orthogonalEdgeStyle;rounded=0;orthogonalLoop=1;jettySize=auto;html=1;entryX=0.5;entryY=1;entryDx=0;entryDy=0;" edge="1" parent="1" source="yyXE2H1xFapimnY8cJsD-6" target="yyXE2H1xFapimnY8cJsD-64">
          <mxGeometry relative="1" as="geometry">
            <Array as="points">
              <mxPoint x="579" y="150" />
              <mxPoint x="444" y="150" />
            </Array>
          </mxGeometry>
        </mxCell>
        <mxCell id="yyXE2H1xFapimnY8cJsD-6" value="CRIME" style="shape=associativeEntity;whiteSpace=wrap;html=1;align=center;" vertex="1" parent="1">
          <mxGeometry x="509" y="190" width="140" height="60" as="geometry" />
        </mxCell>
        <mxCell id="yyXE2H1xFapimnY8cJsD-12" value="" style="endArrow=none;html=1;rounded=0;exitX=1;exitY=0.5;exitDx=0;exitDy=0;entryX=0;entryY=0.5;entryDx=0;entryDy=0;" edge="1" parent="1" source="yyXE2H1xFapimnY8cJsD-1" target="yyXE2H1xFapimnY8cJsD-6">
          <mxGeometry relative="1" as="geometry">
            <mxPoint x="509" y="270" as="sourcePoint" />
            <mxPoint x="669" y="270" as="targetPoint" />
            <Array as="points" />
          </mxGeometry>
        </mxCell>
        <mxCell id="yyXE2H1xFapimnY8cJsD-14" value="" style="endArrow=none;html=1;rounded=0;entryX=0;entryY=0.5;entryDx=0;entryDy=0;exitX=1;exitY=0.5;exitDx=0;exitDy=0;" edge="1" parent="1" source="yyXE2H1xFapimnY8cJsD-6" target="yyXE2H1xFapimnY8cJsD-2">
          <mxGeometry relative="1" as="geometry">
            <mxPoint x="509" y="270" as="sourcePoint" />
            <mxPoint x="669" y="270" as="targetPoint" />
          </mxGeometry>
        </mxCell>
        <mxCell id="yyXE2H1xFapimnY8cJsD-32" value="&lt;b&gt;(1,n)&lt;/b&gt;" style="text;strokeColor=none;fillColor=none;spacingLeft=4;spacingRight=4;overflow=hidden;rotatable=0;points=[[0,0.5],[1,0.5]];portConstraint=eastwest;fontSize=12;whiteSpace=wrap;html=1;" vertex="1" parent="1">
          <mxGeometry x="701" y="197" width="40" height="30" as="geometry" />
        </mxCell>
        <mxCell id="yyXE2H1xFapimnY8cJsD-33" value="&lt;b&gt;(1,n)&lt;/b&gt;" style="text;strokeColor=none;fillColor=none;spacingLeft=4;spacingRight=4;overflow=hidden;rotatable=0;points=[[0,0.5],[1,0.5]];portConstraint=eastwest;fontSize=12;whiteSpace=wrap;html=1;" vertex="1" parent="1">
          <mxGeometry x="411" y="196" width="40" height="30" as="geometry" />
        </mxCell>
        <mxCell id="yyXE2H1xFapimnY8cJsD-35" value="CÓDIGO" style="ellipse;whiteSpace=wrap;html=1;align=center;fontStyle=4;" vertex="1" parent="1">
          <mxGeometry x="150" y="320" width="80" height="40" as="geometry" />
        </mxCell>
        <mxCell id="yyXE2H1xFapimnY8cJsD-37" value="&lt;font style=&quot;font-size: 11px;&quot;&gt;DOC_IDENTIFICAÇÃO&lt;/font&gt;" style="ellipse;whiteSpace=wrap;html=1;align=center;" vertex="1" parent="1">
          <mxGeometry x="239" y="320" width="120" height="40" as="geometry" />
        </mxCell>
        <mxCell id="yyXE2H1xFapimnY8cJsD-41" value="NOME" style="ellipse;whiteSpace=wrap;html=1;align=center;" vertex="1" parent="1">
          <mxGeometry x="371" y="320" width="80" height="40" as="geometry" />
        </mxCell>
        <mxCell id="yyXE2H1xFapimnY8cJsD-50" value="CÓDIGO" style="ellipse;whiteSpace=wrap;html=1;align=center;fontStyle=4;" vertex="1" parent="1">
          <mxGeometry x="688.5" y="320" width="80" height="40" as="geometry" />
        </mxCell>
        <mxCell id="yyXE2H1xFapimnY8cJsD-51" value="&lt;font style=&quot;font-size: 11px;&quot;&gt;DOC_IDENTIFICAÇÃO&lt;/font&gt;" style="ellipse;whiteSpace=wrap;html=1;align=center;" vertex="1" parent="1">
          <mxGeometry x="777.5" y="320" width="120" height="40" as="geometry" />
        </mxCell>
        <mxCell id="yyXE2H1xFapimnY8cJsD-52" value="NOME" style="ellipse;whiteSpace=wrap;html=1;align=center;" vertex="1" parent="1">
          <mxGeometry x="909.5" y="320" width="80" height="40" as="geometry" />
        </mxCell>
        <mxCell id="yyXE2H1xFapimnY8cJsD-58" value="REGISTRO" style="shape=rhombus;perimeter=rhombusPerimeter;whiteSpace=wrap;html=1;align=center;" vertex="1" parent="1">
          <mxGeometry x="519" y="320" width="120" height="60" as="geometry" />
        </mxCell>
        <mxCell id="yyXE2H1xFapimnY8cJsD-61" value="" style="endArrow=none;html=1;rounded=0;exitX=0.5;exitY=1;exitDx=0;exitDy=0;entryX=0.5;entryY=0;entryDx=0;entryDy=0;" edge="1" parent="1" source="yyXE2H1xFapimnY8cJsD-6" target="yyXE2H1xFapimnY8cJsD-58">
          <mxGeometry relative="1" as="geometry">
            <mxPoint x="530" y="390" as="sourcePoint" />
            <mxPoint x="690" y="390" as="targetPoint" />
          </mxGeometry>
        </mxCell>
        <mxCell id="yyXE2H1xFapimnY8cJsD-62" value="" style="endArrow=none;html=1;rounded=0;exitX=0.5;exitY=1;exitDx=0;exitDy=0;entryX=0.5;entryY=0;entryDx=0;entryDy=0;" edge="1" parent="1" source="yyXE2H1xFapimnY8cJsD-58" target="yyXE2H1xFapimnY8cJsD-3">
          <mxGeometry relative="1" as="geometry">
            <mxPoint x="530" y="390" as="sourcePoint" />
            <mxPoint x="690" y="390" as="targetPoint" />
          </mxGeometry>
        </mxCell>
        <mxCell id="yyXE2H1xFapimnY8cJsD-63" value="DESCRIÇÃO" style="ellipse;whiteSpace=wrap;html=1;align=center;" vertex="1" parent="1">
          <mxGeometry x="493" y="70" width="79" height="40" as="geometry" />
        </mxCell>
        <mxCell id="yyXE2H1xFapimnY8cJsD-64" value="CÓDIGO" style="ellipse;whiteSpace=wrap;html=1;align=center;fontStyle=4;" vertex="1" parent="1">
          <mxGeometry x="404" y="70" width="80" height="40" as="geometry" />
        </mxCell>
        <mxCell id="yyXE2H1xFapimnY8cJsD-65" value="HORÁRIO" style="ellipse;whiteSpace=wrap;html=1;align=center;" vertex="1" parent="1">
          <mxGeometry x="583" y="70" width="81" height="40" as="geometry" />
        </mxCell>
        <mxCell id="yyXE2H1xFapimnY8cJsD-66" value="ENDEREÇO" style="ellipse;whiteSpace=wrap;html=1;align=center;" vertex="1" parent="1">
          <mxGeometry x="674" y="70" width="80" height="40" as="geometry" />
        </mxCell>
        <mxCell id="yyXE2H1xFapimnY8cJsD-73" value="CÓDIGO" style="ellipse;whiteSpace=wrap;html=1;align=center;fontStyle=4;" vertex="1" parent="1">
          <mxGeometry x="404.75" y="546" width="80" height="40" as="geometry" />
        </mxCell>
        <mxCell id="yyXE2H1xFapimnY8cJsD-74" value="TELEFONE" style="ellipse;whiteSpace=wrap;html=1;align=center;" vertex="1" parent="1">
          <mxGeometry x="494.75" y="546" width="80" height="40" as="geometry" />
        </mxCell>
        <mxCell id="yyXE2H1xFapimnY8cJsD-75" value="ENDEREÇO" style="ellipse;whiteSpace=wrap;html=1;align=center;" vertex="1" parent="1">
          <mxGeometry x="584.25" y="546" width="80" height="40" as="geometry" />
        </mxCell>
        <mxCell id="yyXE2H1xFapimnY8cJsD-76" value="DELEGADO" style="ellipse;whiteSpace=wrap;html=1;align=center;" vertex="1" parent="1">
          <mxGeometry x="673.25" y="546" width="80" height="40" as="geometry" />
        </mxCell>
        <mxCell id="yyXE2H1xFapimnY8cJsD-83" value="&lt;b&gt;(1,1)&lt;/b&gt;" style="text;strokeColor=none;fillColor=none;spacingLeft=4;spacingRight=4;overflow=hidden;rotatable=0;points=[[0,0.5],[1,0.5]];portConstraint=eastwest;fontSize=12;whiteSpace=wrap;html=1;horizontal=0;verticalAlign=middle;direction=north;" vertex="1" parent="1">
          <mxGeometry x="548" y="260" width="40" height="40" as="geometry" />
        </mxCell>
        <mxCell id="yyXE2H1xFapimnY8cJsD-84" value="&lt;b&gt;(1,n)&lt;/b&gt;" style="text;strokeColor=none;fillColor=none;spacingLeft=4;spacingRight=4;overflow=hidden;rotatable=0;points=[[0,0.5],[1,0.5]];portConstraint=eastwest;fontSize=12;whiteSpace=wrap;html=1;horizontal=0;verticalAlign=middle;direction=north;" vertex="1" parent="1">
          <mxGeometry x="549" y="380" width="40" height="40" as="geometry" />
        </mxCell>
      </root>
    </mxGraphModel>
  </diagram>
</mxfile>
